<svg width="673" height="263" viewBox="0 0 673 263" fill="none" xmlns="http://www.w3.org/2000/svg">
<path d="M2.24 256V232.96H5.088V243.776L15.168 232.96H18.752L8.288 244.144L19.568 256H15.888L5.088 244.736V256H2.24ZM27.3545 256.48C26.0638 256.48 24.9812 256.245 24.1065 255.776C23.2425 255.296 22.5865 254.667 22.1385 253.888C21.7012 253.109 21.4825 252.256 21.4825 251.328C21.4825 250.421 21.6532 249.637 21.9945 248.976C22.3465 248.304 22.8372 247.749 23.4665 247.312C24.0958 246.864 24.8478 246.512 25.7225 246.256C26.5438 246.032 27.4612 245.84 28.4745 245.68C29.4985 245.509 30.5332 245.355 31.5785 245.216C32.6238 245.077 33.5998 244.944 34.5065 244.816L33.4825 245.408C33.5145 243.872 33.2052 242.736 32.5545 242C31.9145 241.264 30.8052 240.896 29.2265 240.896C28.1812 240.896 27.2638 241.136 26.4745 241.616C25.6958 242.085 25.1465 242.853 24.8265 243.92L22.1225 243.104C22.5385 241.589 23.3438 240.4 24.5385 239.536C25.7332 238.672 27.3065 238.24 29.2585 238.24C30.8265 238.24 32.1705 238.523 33.2905 239.088C34.4212 239.643 35.2318 240.485 35.7225 241.616C35.9678 242.149 36.1225 242.731 36.1865 243.36C36.2505 243.979 36.2825 244.629 36.2825 245.312V256H33.7545V251.856L34.3465 252.24C33.6958 253.637 32.7838 254.693 31.6105 255.408C30.4478 256.123 29.0292 256.48 27.3545 256.48ZM27.7865 254.096C28.8105 254.096 29.6958 253.915 30.4425 253.552C31.1998 253.179 31.8078 252.693 32.2665 252.096C32.7252 251.488 33.0238 250.827 33.1625 250.112C33.3225 249.579 33.4078 248.987 33.4185 248.336C33.4398 247.675 33.4505 247.168 33.4505 246.816L34.4425 247.248C33.5145 247.376 32.6025 247.499 31.7065 247.616C30.8105 247.733 29.9625 247.861 29.1625 248C28.3625 248.128 27.6425 248.283 27.0025 248.464C26.5332 248.613 26.0905 248.805 25.6745 249.04C25.2692 249.275 24.9385 249.579 24.6825 249.952C24.4372 250.315 24.3145 250.768 24.3145 251.312C24.3145 251.781 24.4318 252.229 24.6665 252.656C24.9118 253.083 25.2852 253.429 25.7865 253.696C26.2985 253.963 26.9652 254.096 27.7865 254.096ZM53.3865 256V247.344C53.3865 246.523 53.3118 245.733 53.1625 244.976C53.0238 244.219 52.7732 243.541 52.4105 242.944C52.0585 242.336 51.5785 241.856 50.9705 241.504C50.3732 241.152 49.6158 240.976 48.6985 240.976C47.9838 240.976 47.3332 241.099 46.7465 241.344C46.1705 241.579 45.6745 241.941 45.2585 242.432C44.8425 242.923 44.5172 243.541 44.2825 244.288C44.0585 245.024 43.9465 245.893 43.9465 246.896L42.0745 246.32C42.0745 244.645 42.3732 243.211 42.9705 242.016C43.5785 240.811 44.4265 239.888 45.5145 239.248C46.6132 238.597 47.9038 238.272 49.3865 238.272C50.5065 238.272 51.4612 238.448 52.2505 238.8C53.0398 239.152 53.6958 239.621 54.2185 240.208C54.7412 240.784 55.1518 241.435 55.4505 242.16C55.7492 242.875 55.9572 243.605 56.0745 244.352C56.2025 245.088 56.2665 245.787 56.2665 246.448V256H53.3865ZM41.0665 256V238.72H43.6265V243.344H43.9465V256H41.0665ZM61.3862 235.664V232.72H64.2342V235.664H61.3862ZM61.3862 256V238.72H64.2342V256H61.3862ZM81.979 256V247.344C81.979 246.523 81.9043 245.733 81.755 244.976C81.6163 244.219 81.3657 243.541 81.003 242.944C80.651 242.336 80.171 241.856 79.563 241.504C78.9657 241.152 78.2083 240.976 77.291 240.976C76.5763 240.976 75.9257 241.099 75.339 241.344C74.763 241.579 74.267 241.941 73.851 242.432C73.435 242.923 73.1097 243.541 72.875 244.288C72.651 245.024 72.539 245.893 72.539 246.896L70.667 246.32C70.667 244.645 70.9657 243.211 71.563 242.016C72.171 240.811 73.019 239.888 74.107 239.248C75.2057 238.597 76.4963 238.272 77.979 238.272C79.099 238.272 80.0537 238.448 80.843 238.8C81.6323 239.152 82.2883 239.621 82.811 240.208C83.3337 240.784 83.7443 241.435 84.043 242.16C84.3417 242.875 84.5497 243.605 84.667 244.352C84.795 245.088 84.859 245.787 84.859 246.448V256H81.979ZM69.659 256V238.72H72.219V243.344H72.539V256H69.659ZM89.9787 235.664V232.72H92.8267V235.664H89.9787ZM89.9787 256V238.72H92.8267V256H89.9787ZM111.25 256V235.664H103.394V232.96H121.954V235.664H114.098V256H111.25ZM125.461 235.664V232.72H128.309V235.664H125.461ZM125.461 256V238.72H128.309V256H125.461ZM141.03 256.48C139.281 256.48 137.793 256.091 136.566 255.312C135.35 254.523 134.422 253.44 133.782 252.064C133.142 250.688 132.811 249.12 132.79 247.36C132.811 245.557 133.147 243.973 133.798 242.608C134.459 241.232 135.403 240.16 136.63 239.392C137.857 238.624 139.334 238.24 141.062 238.24C142.886 238.24 144.454 238.688 145.766 239.584C147.089 240.48 147.974 241.707 148.422 243.264L145.606 244.112C145.243 243.109 144.651 242.331 143.83 241.776C143.019 241.221 142.086 240.944 141.03 240.944C139.846 240.944 138.87 241.221 138.102 241.776C137.334 242.32 136.763 243.077 136.39 244.048C136.017 245.008 135.825 246.112 135.814 247.36C135.835 249.28 136.278 250.832 137.142 252.016C138.017 253.189 139.313 253.776 141.03 253.776C142.161 253.776 143.099 253.52 143.846 253.008C144.593 252.485 145.158 251.733 145.542 250.752L148.422 251.504C147.825 253.115 146.891 254.347 145.622 255.2C144.353 256.053 142.822 256.48 141.03 256.48ZM152.311 256L152.327 232.96H155.207V247.04L162.455 238.72H166.151L158.519 247.36L167.047 256H163.063L155.207 247.68V256H152.311ZM176.455 256.48C174.759 256.48 173.277 256.107 172.007 255.36C170.749 254.603 169.767 253.552 169.063 252.208C168.359 250.853 168.007 249.275 168.007 247.472C168.007 245.584 168.354 243.952 169.047 242.576C169.741 241.189 170.706 240.123 171.943 239.376C173.191 238.619 174.653 238.24 176.327 238.24C178.066 238.24 179.543 238.64 180.759 239.44C181.986 240.24 182.903 241.381 183.511 242.864C184.13 244.347 184.397 246.112 184.311 248.16H181.431V247.136C181.399 245.013 180.967 243.429 180.135 242.384C179.303 241.328 178.066 240.8 176.423 240.8C174.663 240.8 173.325 241.365 172.407 242.496C171.49 243.627 171.031 245.248 171.031 247.36C171.031 249.397 171.49 250.976 172.407 252.096C173.325 253.216 174.631 253.776 176.327 253.776C177.469 253.776 178.461 253.515 179.303 252.992C180.146 252.469 180.807 251.717 181.287 250.736L184.023 251.68C183.351 253.205 182.338 254.389 180.983 255.232C179.639 256.064 178.13 256.48 176.455 256.48ZM170.071 248.16V245.872H182.839V248.16H170.071ZM188.514 256V238.72H191.058V242.896L190.642 242.352C190.844 241.819 191.106 241.328 191.426 240.88C191.756 240.432 192.124 240.064 192.53 239.776C192.978 239.413 193.484 239.136 194.05 238.944C194.615 238.752 195.191 238.64 195.778 238.608C196.364 238.565 196.914 238.603 197.426 238.72V241.392C196.828 241.232 196.172 241.189 195.458 241.264C194.743 241.339 194.082 241.6 193.474 242.048C192.919 242.443 192.487 242.923 192.178 243.488C191.879 244.053 191.671 244.667 191.554 245.328C191.436 245.979 191.378 246.645 191.378 247.328V256H188.514ZM208.138 256V232.96H217.242C217.466 232.96 217.732 232.971 218.042 232.992C218.351 233.003 218.65 233.035 218.938 233.088C220.186 233.28 221.231 233.707 222.074 234.368C222.927 235.029 223.567 235.867 223.994 236.88C224.42 237.883 224.634 238.997 224.634 240.224C224.634 241.44 224.415 242.555 223.978 243.568C223.551 244.571 222.911 245.408 222.058 246.08C221.215 246.741 220.175 247.168 218.938 247.36C218.65 247.403 218.351 247.435 218.042 247.456C217.732 247.477 217.466 247.488 217.242 247.488H210.986V256H208.138ZM210.986 244.784H217.146C217.348 244.784 217.578 244.773 217.834 244.752C218.1 244.731 218.351 244.693 218.586 244.64C219.322 244.469 219.919 244.16 220.378 243.712C220.847 243.253 221.188 242.72 221.402 242.112C221.615 241.493 221.722 240.864 221.722 240.224C221.722 239.584 221.615 238.96 221.402 238.352C221.188 237.733 220.847 237.195 220.378 236.736C219.919 236.277 219.322 235.968 218.586 235.808C218.351 235.744 218.1 235.707 217.834 235.696C217.578 235.675 217.348 235.664 217.146 235.664H210.986V244.784ZM228.785 256V232.48H231.633V256H228.785ZM241.986 256.48C240.695 256.48 239.612 256.245 238.738 255.776C237.874 255.296 237.218 254.667 236.77 253.888C236.332 253.109 236.114 252.256 236.114 251.328C236.114 250.421 236.284 249.637 236.626 248.976C236.978 248.304 237.468 247.749 238.098 247.312C238.727 246.864 239.479 246.512 240.354 246.256C241.175 246.032 242.092 245.84 243.106 245.68C244.13 245.509 245.164 245.355 246.21 245.216C247.255 245.077 248.231 244.944 249.138 244.816L248.114 245.408C248.146 243.872 247.836 242.736 247.186 242C246.546 241.264 245.436 240.896 243.858 240.896C242.812 240.896 241.895 241.136 241.106 241.616C240.327 242.085 239.778 242.853 239.458 243.92L236.754 243.104C237.17 241.589 237.975 240.4 239.17 239.536C240.364 238.672 241.938 238.24 243.89 238.24C245.458 238.24 246.802 238.523 247.922 239.088C249.052 239.643 249.863 240.485 250.354 241.616C250.599 242.149 250.754 242.731 250.818 243.36C250.882 243.979 250.914 244.629 250.914 245.312V256H248.386V251.856L248.978 252.24C248.327 253.637 247.415 254.693 246.242 255.408C245.079 256.123 243.66 256.48 241.986 256.48ZM242.418 254.096C243.442 254.096 244.327 253.915 245.074 253.552C245.831 253.179 246.439 252.693 246.898 252.096C247.356 251.488 247.655 250.827 247.794 250.112C247.954 249.579 248.039 248.987 248.05 248.336C248.071 247.675 248.082 247.168 248.082 246.816L249.074 247.248C248.146 247.376 247.234 247.499 246.338 247.616C245.442 247.733 244.594 247.861 243.794 248C242.994 248.128 242.274 248.283 241.634 248.464C241.164 248.613 240.722 248.805 240.306 249.04C239.9 249.275 239.57 249.579 239.314 249.952C239.068 250.315 238.946 250.768 238.946 251.312C238.946 251.781 239.063 252.229 239.298 252.656C239.543 253.083 239.916 253.429 240.418 253.696C240.93 253.963 241.596 254.096 242.418 254.096ZM265.362 256C264.338 256.203 263.324 256.283 262.322 256.24C261.33 256.208 260.444 256.011 259.666 255.648C258.887 255.275 258.295 254.699 257.89 253.92C257.548 253.237 257.362 252.549 257.33 251.856C257.308 251.152 257.298 250.357 257.298 249.472V233.92H260.146V249.344C260.146 250.048 260.151 250.651 260.162 251.152C260.183 251.653 260.295 252.085 260.498 252.448C260.882 253.131 261.49 253.531 262.322 253.648C263.164 253.765 264.178 253.733 265.362 253.552V256ZM253.794 241.072V238.72H265.362V241.072H253.794ZM271.158 256V237.776C271.158 237.328 271.179 236.875 271.222 236.416C271.265 235.947 271.361 235.493 271.51 235.056C271.659 234.608 271.905 234.197 272.246 233.824C272.641 233.387 273.073 233.077 273.542 232.896C274.011 232.704 274.486 232.587 274.966 232.544C275.457 232.501 275.921 232.48 276.358 232.48H278.55V234.848H276.518C275.675 234.848 275.046 235.056 274.63 235.472C274.214 235.877 274.006 236.496 274.006 237.328V256H271.158ZM268.23 241.072V238.72H278.55V241.072H268.23ZM288.479 256.48C286.761 256.48 285.279 256.091 284.031 255.312C282.793 254.533 281.839 253.456 281.167 252.08C280.495 250.704 280.159 249.125 280.159 247.344C280.159 245.531 280.5 243.941 281.183 242.576C281.865 241.211 282.831 240.149 284.079 239.392C285.327 238.624 286.793 238.24 288.479 238.24C290.207 238.24 291.695 238.629 292.943 239.408C294.191 240.176 295.145 241.248 295.807 242.624C296.479 243.989 296.815 245.563 296.815 247.344C296.815 249.147 296.479 250.736 295.807 252.112C295.135 253.477 294.175 254.549 292.927 255.328C291.679 256.096 290.196 256.48 288.479 256.48ZM288.479 253.776C290.271 253.776 291.604 253.179 292.479 251.984C293.353 250.789 293.791 249.243 293.791 247.344C293.791 245.392 293.348 243.84 292.463 242.688C291.577 241.525 290.249 240.944 288.479 240.944C287.273 240.944 286.281 241.216 285.503 241.76C284.724 242.304 284.143 243.056 283.759 244.016C283.375 244.976 283.183 246.085 283.183 247.344C283.183 249.285 283.631 250.843 284.527 252.016C285.423 253.189 286.74 253.776 288.479 253.776ZM300.977 256V238.72H303.521V242.896L303.105 242.352C303.308 241.819 303.569 241.328 303.889 240.88C304.22 240.432 304.588 240.064 304.993 239.776C305.441 239.413 305.948 239.136 306.513 238.944C307.079 238.752 307.655 238.64 308.241 238.608C308.828 238.565 309.377 238.603 309.889 238.72V241.392C309.292 241.232 308.636 241.189 307.921 241.264C307.207 241.339 306.545 241.6 305.937 242.048C305.383 242.443 304.951 242.923 304.641 243.488C304.343 244.053 304.135 244.667 304.017 245.328C303.9 245.979 303.841 246.645 303.841 247.328V256H300.977ZM334.211 256L334.227 244.944C334.227 243.653 333.88 242.645 333.187 241.92C332.504 241.184 331.614 240.816 330.515 240.816C329.875 240.816 329.267 240.965 328.691 241.264C328.115 241.552 327.646 242.011 327.283 242.64C326.92 243.259 326.739 244.053 326.739 245.024L325.235 244.416C325.214 243.189 325.464 242.117 325.987 241.2C326.52 240.272 327.246 239.552 328.163 239.04C329.08 238.528 330.115 238.272 331.267 238.272C333.07 238.272 334.488 238.821 335.523 239.92C336.558 241.008 337.075 242.475 337.075 244.32L337.059 256H334.211ZM313.539 256V238.72H316.083V243.344H316.403V256H313.539ZM323.891 256L323.907 245.056C323.907 243.733 323.566 242.699 322.883 241.952C322.2 241.195 321.294 240.816 320.163 240.816C319.043 240.816 318.136 241.2 317.443 241.968C316.75 242.736 316.403 243.755 316.403 245.024L314.899 244.128C314.899 243.008 315.166 242.005 315.699 241.12C316.232 240.235 316.958 239.541 317.875 239.04C318.792 238.528 319.832 238.272 320.995 238.272C322.158 238.272 323.171 238.517 324.035 239.008C324.899 239.499 325.566 240.203 326.035 241.12C326.504 242.027 326.739 243.109 326.739 244.368L326.723 256H323.891Z" fill="#4F5B67"/>
<path d="M3.36 140V105.44H25.92V111.536H9.888V118.928H23.04V125.024H9.888V133.904H25.92V140H3.36ZM29.7525 140L39.0165 126.896L29.9445 114.08H37.6245L42.8085 121.76L47.8965 114.08H55.5765L46.5045 126.896L55.8165 140H48.1365L42.8085 132.032L37.4325 140H29.7525ZM73.3594 140.72C70.7834 140.72 68.6314 140.12 66.9034 138.92C65.1754 137.72 63.8714 136.088 62.9914 134.024C62.1274 131.96 61.6954 129.632 61.6954 127.04C61.6954 124.448 62.1274 122.12 62.9914 120.056C63.8554 117.992 65.1274 116.36 66.8074 115.16C68.4874 113.96 70.5594 113.36 73.0234 113.36C75.5034 113.36 77.6634 113.952 79.5034 115.136C81.3434 116.32 82.7674 117.944 83.7754 120.008C84.7994 122.056 85.3114 124.4 85.3114 127.04C85.3114 129.632 84.8074 131.96 83.7994 134.024C82.8074 136.088 81.4154 137.72 79.6234 138.92C77.8314 140.12 75.7434 140.72 73.3594 140.72ZM60.5914 151.52V114.08H66.3514V131.84H67.1674V151.52H60.5914ZM72.3034 134.912C73.7114 134.912 74.8634 134.56 75.7594 133.856C76.6554 133.152 77.3194 132.208 77.7514 131.024C78.1834 129.824 78.3994 128.496 78.3994 127.04C78.3994 125.6 78.1754 124.288 77.7274 123.104C77.2794 121.904 76.5834 120.952 75.6394 120.248C74.7114 119.528 73.5194 119.168 72.0634 119.168C70.7034 119.168 69.5994 119.496 68.7514 120.152C67.9194 120.808 67.3114 121.728 66.9274 122.912C66.5434 124.096 66.3514 125.472 66.3514 127.04C66.3514 128.608 66.5434 129.984 66.9274 131.168C67.3114 132.352 67.9354 133.272 68.7994 133.928C69.6794 134.584 70.8474 134.912 72.3034 134.912ZM103.6 140.72C100.944 140.72 98.6005 140.152 96.5685 139.016C94.5525 137.864 92.9685 136.288 91.8165 134.288C90.6805 132.272 90.1125 129.968 90.1125 127.376C90.1125 124.544 90.6725 122.08 91.7925 119.984C92.9125 117.888 94.4565 116.264 96.4245 115.112C98.3925 113.944 100.656 113.36 103.216 113.36C105.936 113.36 108.248 114 110.152 115.28C112.056 116.56 113.464 118.36 114.376 120.68C115.288 123 115.608 125.728 115.336 128.864H108.88V126.464C108.88 123.824 108.456 121.928 107.608 120.776C106.776 119.608 105.408 119.024 103.504 119.024C101.28 119.024 99.6405 119.704 98.5845 121.064C97.5445 122.408 97.0245 124.4 97.0245 127.04C97.0245 129.456 97.5445 131.328 98.5845 132.656C99.6405 133.968 101.184 134.624 103.216 134.624C104.496 134.624 105.592 134.344 106.504 133.784C107.416 133.224 108.112 132.416 108.592 131.36L115.12 133.232C114.144 135.6 112.6 137.44 110.488 138.752C108.392 140.064 106.096 140.72 103.6 140.72ZM95.0085 128.864V124.016H112.192V128.864H95.0085ZM121.716 140V114.08H127.476V120.416L126.852 119.6C127.188 118.704 127.636 117.888 128.196 117.152C128.756 116.416 129.444 115.808 130.26 115.328C130.884 114.944 131.564 114.648 132.3 114.44C133.036 114.216 133.796 114.08 134.58 114.032C135.364 113.968 136.148 113.984 136.932 114.08V120.176C136.212 119.952 135.372 119.88 134.412 119.96C133.468 120.024 132.612 120.24 131.844 120.608C131.076 120.96 130.428 121.432 129.9 122.024C129.372 122.6 128.972 123.288 128.7 124.088C128.428 124.872 128.292 125.76 128.292 126.752V140H121.716ZM142.937 110.48V104.72H149.465V110.48H142.937ZM142.937 140V114.08H149.465V140H142.937ZM169.668 140.72C167.012 140.72 164.668 140.152 162.636 139.016C160.62 137.864 159.036 136.288 157.884 134.288C156.748 132.272 156.18 129.968 156.18 127.376C156.18 124.544 156.74 122.08 157.86 119.984C158.98 117.888 160.524 116.264 162.492 115.112C164.46 113.944 166.724 113.36 169.284 113.36C172.004 113.36 174.316 114 176.22 115.28C178.124 116.56 179.532 118.36 180.444 120.68C181.356 123 181.676 125.728 181.404 128.864H174.948V126.464C174.948 123.824 174.524 121.928 173.676 120.776C172.844 119.608 171.476 119.024 169.572 119.024C167.348 119.024 165.708 119.704 164.652 121.064C163.612 122.408 163.092 124.4 163.092 127.04C163.092 129.456 163.612 131.328 164.652 132.656C165.708 133.968 167.252 134.624 169.284 134.624C170.564 134.624 171.66 134.344 172.572 133.784C173.484 133.224 174.18 132.416 174.66 131.36L181.188 133.232C180.212 135.6 178.668 137.44 176.556 138.752C174.46 140.064 172.164 140.72 169.668 140.72ZM161.076 128.864V124.016H178.26V128.864H161.076ZM204.744 140V127.76C204.744 127.168 204.712 126.416 204.648 125.504C204.584 124.576 204.384 123.648 204.048 122.72C203.712 121.792 203.16 121.016 202.392 120.392C201.64 119.768 200.568 119.456 199.176 119.456C198.616 119.456 198.016 119.544 197.376 119.72C196.736 119.896 196.136 120.24 195.576 120.752C195.016 121.248 194.552 121.984 194.184 122.96C193.832 123.936 193.656 125.232 193.656 126.848L189.912 125.072C189.912 123.024 190.328 121.104 191.16 119.312C191.992 117.52 193.24 116.072 194.904 114.968C196.584 113.864 198.696 113.312 201.24 113.312C203.272 113.312 204.928 113.656 206.208 114.344C207.488 115.032 208.48 115.904 209.184 116.96C209.904 118.016 210.416 119.12 210.72 120.272C211.024 121.408 211.208 122.448 211.272 123.392C211.336 124.336 211.368 125.024 211.368 125.456V140H204.744ZM187.032 140V114.08H192.84V122.672H193.656V140H187.032ZM229.511 140.72C226.823 140.72 224.519 140.12 222.599 138.92C220.679 137.72 219.207 136.088 218.183 134.024C217.159 131.96 216.647 129.632 216.647 127.04C216.647 124.416 217.175 122.072 218.231 120.008C219.303 117.944 220.807 116.32 222.743 115.136C224.679 113.952 226.967 113.36 229.607 113.36C232.663 113.36 235.223 114.136 237.287 115.688C239.367 117.224 240.695 119.328 241.271 122L234.743 123.728C234.359 122.384 233.687 121.336 232.727 120.584C231.783 119.832 230.711 119.456 229.511 119.456C228.135 119.456 227.007 119.792 226.127 120.464C225.247 121.12 224.599 122.024 224.183 123.176C223.767 124.312 223.559 125.6 223.559 127.04C223.559 129.296 224.055 131.128 225.047 132.536C226.055 133.928 227.543 134.624 229.511 134.624C230.983 134.624 232.103 134.288 232.871 133.616C233.639 132.944 234.215 131.984 234.599 130.736L241.271 132.128C240.535 134.88 239.143 137 237.095 138.488C235.047 139.976 232.519 140.72 229.511 140.72ZM258.376 140.72C255.72 140.72 253.376 140.152 251.344 139.016C249.328 137.864 247.744 136.288 246.592 134.288C245.456 132.272 244.888 129.968 244.888 127.376C244.888 124.544 245.448 122.08 246.568 119.984C247.688 117.888 249.232 116.264 251.2 115.112C253.168 113.944 255.432 113.36 257.992 113.36C260.712 113.36 263.024 114 264.928 115.28C266.832 116.56 268.24 118.36 269.152 120.68C270.064 123 270.384 125.728 270.112 128.864H263.656V126.464C263.656 123.824 263.232 121.928 262.384 120.776C261.552 119.608 260.184 119.024 258.28 119.024C256.056 119.024 254.416 119.704 253.36 121.064C252.32 122.408 251.8 124.4 251.8 127.04C251.8 129.456 252.32 131.328 253.36 132.656C254.416 133.968 255.96 134.624 257.992 134.624C259.272 134.624 260.368 134.344 261.28 133.784C262.192 133.224 262.888 132.416 263.368 131.36L269.896 133.232C268.92 135.6 267.376 137.44 265.264 138.752C263.168 140.064 260.872 140.72 258.376 140.72ZM249.784 128.864V124.016H266.968V128.864H249.784ZM300.117 140.72C297.557 140.72 295.245 140.272 293.181 139.376C291.133 138.464 289.445 137.168 288.117 135.488C286.805 133.792 285.973 131.776 285.621 129.44L292.437 128.432C292.917 130.416 293.909 131.944 295.413 133.016C296.917 134.088 298.629 134.624 300.549 134.624C301.621 134.624 302.661 134.456 303.669 134.12C304.677 133.784 305.501 133.288 306.141 132.632C306.797 131.976 307.125 131.168 307.125 130.208C307.125 129.856 307.069 129.52 306.957 129.2C306.861 128.864 306.693 128.552 306.453 128.264C306.213 127.976 305.869 127.704 305.421 127.448C304.989 127.192 304.437 126.96 303.765 126.752L294.789 124.112C294.117 123.92 293.333 123.648 292.437 123.296C291.557 122.944 290.701 122.44 289.869 121.784C289.037 121.128 288.341 120.264 287.781 119.192C287.237 118.104 286.965 116.736 286.965 115.088C286.965 112.768 287.549 110.84 288.717 109.304C289.885 107.768 291.445 106.624 293.397 105.872C295.349 105.12 297.509 104.752 299.877 104.768C302.261 104.8 304.389 105.208 306.261 105.992C308.133 106.776 309.701 107.92 310.965 109.424C312.229 110.912 313.141 112.736 313.701 114.896L306.645 116.096C306.389 114.976 305.917 114.032 305.229 113.264C304.541 112.496 303.717 111.912 302.757 111.512C301.813 111.112 300.821 110.896 299.781 110.864C298.757 110.832 297.789 110.976 296.877 111.296C295.981 111.6 295.245 112.048 294.669 112.64C294.109 113.232 293.829 113.936 293.829 114.752C293.829 115.504 294.061 116.12 294.525 116.6C294.989 117.064 295.573 117.44 296.277 117.728C296.981 118.016 297.701 118.256 298.437 118.448L304.437 120.08C305.333 120.32 306.325 120.64 307.413 121.04C308.501 121.424 309.541 121.968 310.533 122.672C311.541 123.36 312.365 124.272 313.005 125.408C313.661 126.544 313.989 127.984 313.989 129.728C313.989 131.584 313.597 133.208 312.813 134.6C312.045 135.976 311.005 137.12 309.693 138.032C308.381 138.928 306.893 139.6 305.229 140.048C303.581 140.496 301.877 140.72 300.117 140.72ZM332.272 140.72C329.616 140.72 327.272 140.152 325.24 139.016C323.224 137.864 321.64 136.288 320.488 134.288C319.352 132.272 318.784 129.968 318.784 127.376C318.784 124.544 319.344 122.08 320.464 119.984C321.584 117.888 323.128 116.264 325.096 115.112C327.064 113.944 329.328 113.36 331.888 113.36C334.608 113.36 336.92 114 338.824 115.28C340.728 116.56 342.136 118.36 343.048 120.68C343.96 123 344.28 125.728 344.008 128.864H337.552V126.464C337.552 123.824 337.128 121.928 336.28 120.776C335.448 119.608 334.08 119.024 332.176 119.024C329.952 119.024 328.312 119.704 327.256 121.064C326.216 122.408 325.696 124.4 325.696 127.04C325.696 129.456 326.216 131.328 327.256 132.656C328.312 133.968 329.856 134.624 331.888 134.624C333.168 134.624 334.264 134.344 335.176 133.784C336.088 133.224 336.784 132.416 337.264 131.36L343.792 133.232C342.816 135.6 341.272 137.44 339.16 138.752C337.064 140.064 334.768 140.72 332.272 140.72ZM323.68 128.864V124.016H340.864V128.864H323.68ZM357.118 140.72C355.262 140.72 353.686 140.368 352.39 139.664C351.11 138.944 350.134 137.992 349.462 136.808C348.806 135.608 348.478 134.288 348.478 132.848C348.478 131.648 348.662 130.552 349.03 129.56C349.398 128.568 349.99 127.696 350.806 126.944C351.638 126.176 352.75 125.536 354.142 125.024C355.102 124.672 356.246 124.36 357.574 124.088C358.902 123.816 360.406 123.56 362.086 123.32C363.766 123.064 365.614 122.784 367.63 122.48L365.278 123.776C365.278 122.24 364.91 121.112 364.174 120.392C363.438 119.672 362.206 119.312 360.478 119.312C359.518 119.312 358.518 119.544 357.478 120.008C356.438 120.472 355.71 121.296 355.294 122.48L349.39 120.608C350.046 118.464 351.278 116.72 353.086 115.376C354.894 114.032 357.358 113.36 360.478 113.36C362.766 113.36 364.798 113.712 366.574 114.416C368.35 115.12 369.694 116.336 370.606 118.064C371.118 119.024 371.422 119.984 371.518 120.944C371.614 121.904 371.662 122.976 371.662 124.16V140H365.95V134.672L366.766 135.776C365.502 137.52 364.134 138.784 362.662 139.568C361.206 140.336 359.358 140.72 357.118 140.72ZM358.51 135.584C359.71 135.584 360.718 135.376 361.534 134.96C362.366 134.528 363.022 134.04 363.502 133.496C363.998 132.952 364.334 132.496 364.51 132.128C364.846 131.424 365.038 130.608 365.086 129.68C365.15 128.736 365.182 127.952 365.182 127.328L367.102 127.808C365.166 128.128 363.598 128.4 362.398 128.624C361.198 128.832 360.23 129.024 359.494 129.2C358.758 129.376 358.11 129.568 357.55 129.776C356.91 130.032 356.39 130.312 355.99 130.616C355.606 130.904 355.318 131.224 355.126 131.576C354.95 131.928 354.862 132.32 354.862 132.752C354.862 133.344 355.006 133.856 355.294 134.288C355.598 134.704 356.022 135.024 356.566 135.248C357.11 135.472 357.758 135.584 358.51 135.584ZM410.063 140V124.688C410.063 122.976 409.655 121.648 408.839 120.704C408.039 119.744 406.927 119.264 405.503 119.264C404.591 119.264 403.799 119.48 403.127 119.912C402.455 120.328 401.927 120.92 401.543 121.688C401.175 122.44 400.991 123.312 400.991 124.304L398.255 122.48C398.255 120.704 398.671 119.136 399.503 117.776C400.351 116.416 401.479 115.36 402.887 114.608C404.311 113.84 405.887 113.456 407.615 113.456C410.575 113.456 412.807 114.336 414.311 116.096C415.831 117.84 416.591 120.128 416.591 122.96V140H410.063ZM378.815 140V114.08H384.575V122.672H385.391V140H378.815ZM394.463 140V124.688C394.463 122.976 394.055 121.648 393.239 120.704C392.439 119.744 391.327 119.264 389.903 119.264C388.543 119.264 387.447 119.736 386.615 120.68C385.799 121.608 385.391 122.816 385.391 124.304L382.655 122.384C382.655 120.688 383.079 119.168 383.927 117.824C384.775 116.48 385.911 115.416 387.335 114.632C388.775 113.848 390.383 113.456 392.159 113.456C394.191 113.456 395.855 113.888 397.151 114.752C398.463 115.616 399.431 116.768 400.055 118.208C400.679 119.648 400.991 121.232 400.991 122.96V140H394.463ZM424.271 140V104.72H430.799V140H424.271ZM451.002 140.72C448.346 140.72 446.002 140.152 443.97 139.016C441.954 137.864 440.37 136.288 439.218 134.288C438.082 132.272 437.514 129.968 437.514 127.376C437.514 124.544 438.074 122.08 439.194 119.984C440.314 117.888 441.858 116.264 443.826 115.112C445.794 113.944 448.058 113.36 450.618 113.36C453.338 113.36 455.65 114 457.554 115.28C459.458 116.56 460.866 118.36 461.778 120.68C462.69 123 463.01 125.728 462.738 128.864H456.282V126.464C456.282 123.824 455.858 121.928 455.01 120.776C454.178 119.608 452.81 119.024 450.906 119.024C448.682 119.024 447.042 119.704 445.986 121.064C444.946 122.408 444.426 124.4 444.426 127.04C444.426 129.456 444.946 131.328 445.986 132.656C447.042 133.968 448.586 134.624 450.618 134.624C451.898 134.624 452.994 134.344 453.906 133.784C454.818 133.224 455.514 132.416 455.994 131.36L462.522 133.232C461.546 135.6 460.002 137.44 457.89 138.752C455.794 140.064 453.498 140.72 451.002 140.72ZM442.41 128.864V124.016H459.594V128.864H442.41ZM479.246 140.72C475.982 140.72 473.342 139.984 471.326 138.512C469.326 137.024 468.11 134.928 467.678 132.224L474.35 131.216C474.622 132.432 475.222 133.384 476.15 134.072C477.094 134.76 478.286 135.104 479.726 135.104C480.91 135.104 481.822 134.88 482.462 134.432C483.102 133.968 483.422 133.328 483.422 132.512C483.422 132 483.294 131.592 483.038 131.288C482.782 130.968 482.206 130.656 481.31 130.352C480.43 130.048 479.054 129.648 477.182 129.152C475.07 128.608 473.382 128 472.118 127.328C470.854 126.656 469.942 125.856 469.382 124.928C468.822 123.984 468.542 122.848 468.542 121.52C468.542 119.856 468.966 118.416 469.814 117.2C470.662 115.968 471.854 115.024 473.39 114.368C474.942 113.696 476.766 113.36 478.862 113.36C480.894 113.36 482.694 113.672 484.262 114.296C485.83 114.92 487.094 115.808 488.054 116.96C489.03 118.112 489.63 119.472 489.854 121.04L483.182 122.24C483.07 121.28 482.654 120.52 481.934 119.96C481.214 119.4 480.238 119.072 479.006 118.976C477.806 118.896 476.838 119.056 476.102 119.456C475.382 119.856 475.022 120.432 475.022 121.184C475.022 121.632 475.174 122.008 475.478 122.312C475.798 122.616 476.446 122.928 477.422 123.248C478.414 123.568 479.918 123.984 481.934 124.496C483.902 125.008 485.478 125.608 486.662 126.296C487.862 126.968 488.734 127.784 489.278 128.744C489.822 129.688 490.094 130.832 490.094 132.176C490.094 134.832 489.134 136.92 487.214 138.44C485.294 139.96 482.638 140.72 479.246 140.72ZM506.455 140.72C503.191 140.72 500.551 139.984 498.535 138.512C496.535 137.024 495.319 134.928 494.887 132.224L501.559 131.216C501.831 132.432 502.431 133.384 503.359 134.072C504.303 134.76 505.495 135.104 506.935 135.104C508.119 135.104 509.031 134.88 509.671 134.432C510.312 133.968 510.632 133.328 510.632 132.512C510.632 132 510.503 131.592 510.247 131.288C509.991 130.968 509.415 130.656 508.519 130.352C507.639 130.048 506.263 129.648 504.391 129.152C502.279 128.608 500.591 128 499.327 127.328C498.063 126.656 497.151 125.856 496.591 124.928C496.031 123.984 495.751 122.848 495.751 121.52C495.751 119.856 496.175 118.416 497.023 117.2C497.871 115.968 499.063 115.024 500.599 114.368C502.151 113.696 503.975 113.36 506.071 113.36C508.103 113.36 509.903 113.672 511.471 114.296C513.039 114.92 514.303 115.808 515.263 116.96C516.24 118.112 516.84 119.472 517.064 121.04L510.391 122.24C510.279 121.28 509.863 120.52 509.143 119.96C508.423 119.4 507.447 119.072 506.215 118.976C505.015 118.896 504.047 119.056 503.311 119.456C502.591 119.856 502.231 120.432 502.231 121.184C502.231 121.632 502.383 122.008 502.687 122.312C503.007 122.616 503.655 122.928 504.631 123.248C505.623 123.568 507.127 123.984 509.143 124.496C511.111 125.008 512.688 125.608 513.872 126.296C515.071 126.968 515.943 127.784 516.487 128.744C517.031 129.688 517.304 130.832 517.304 132.176C517.304 134.832 516.344 136.92 514.424 138.44C512.503 139.96 509.847 140.72 506.455 140.72ZM547.163 140.72C544.603 140.72 542.291 140.272 540.227 139.376C538.179 138.464 536.491 137.168 535.163 135.488C533.851 133.792 533.019 131.776 532.667 129.44L539.483 128.432C539.963 130.416 540.955 131.944 542.459 133.016C543.963 134.088 545.675 134.624 547.595 134.624C548.667 134.624 549.707 134.456 550.715 134.12C551.723 133.784 552.547 133.288 553.187 132.632C553.843 131.976 554.171 131.168 554.171 130.208C554.171 129.856 554.115 129.52 554.003 129.2C553.907 128.864 553.739 128.552 553.499 128.264C553.259 127.976 552.915 127.704 552.467 127.448C552.035 127.192 551.483 126.96 550.811 126.752L541.835 124.112C541.163 123.92 540.379 123.648 539.483 123.296C538.603 122.944 537.747 122.44 536.915 121.784C536.083 121.128 535.387 120.264 534.827 119.192C534.283 118.104 534.011 116.736 534.011 115.088C534.011 112.768 534.595 110.84 535.763 109.304C536.931 107.768 538.491 106.624 540.443 105.872C542.395 105.12 544.555 104.752 546.923 104.768C549.307 104.8 551.435 105.208 553.307 105.992C555.179 106.776 556.747 107.92 558.011 109.424C559.275 110.912 560.187 112.736 560.747 114.896L553.691 116.096C553.435 114.976 552.963 114.032 552.275 113.264C551.587 112.496 550.763 111.912 549.803 111.512C548.859 111.112 547.867 110.896 546.827 110.864C545.803 110.832 544.835 110.976 543.923 111.296C543.027 111.6 542.291 112.048 541.715 112.64C541.155 113.232 540.875 113.936 540.875 114.752C540.875 115.504 541.107 116.12 541.571 116.6C542.035 117.064 542.619 117.44 543.323 117.728C544.027 118.016 544.747 118.256 545.483 118.448L551.483 120.08C552.379 120.32 553.371 120.64 554.459 121.04C555.547 121.424 556.587 121.968 557.579 122.672C558.587 123.36 559.411 124.272 560.051 125.408C560.707 126.544 561.035 127.984 561.035 129.728C561.035 131.584 560.643 133.208 559.859 134.6C559.091 135.976 558.051 137.12 556.739 138.032C555.427 138.928 553.939 139.6 552.275 140.048C550.627 140.496 548.923 140.72 547.163 140.72ZM582.822 140C581.03 140.336 579.27 140.48 577.542 140.432C575.83 140.4 574.294 140.104 572.934 139.544C571.59 138.968 570.566 138.048 569.862 136.784C569.222 135.6 568.886 134.4 568.854 133.184C568.822 131.952 568.806 130.56 568.806 129.008V106.88H575.334V128.624C575.334 129.632 575.342 130.544 575.358 131.36C575.39 132.16 575.558 132.8 575.862 133.28C576.438 134.192 577.358 134.688 578.622 134.768C579.886 134.848 581.286 134.784 582.822 134.576V140ZM564.39 119.12V114.08H582.822V119.12H564.39ZM599.816 140.72C597.208 140.72 594.92 140.136 592.952 138.968C590.984 137.8 589.448 136.192 588.344 134.144C587.256 132.08 586.712 129.712 586.712 127.04C586.712 124.336 587.272 121.96 588.392 119.912C589.512 117.848 591.056 116.24 593.024 115.088C594.992 113.936 597.256 113.36 599.816 113.36C602.424 113.36 604.712 113.944 606.68 115.112C608.664 116.28 610.208 117.896 611.312 119.96C612.416 122.008 612.968 124.368 612.968 127.04C612.968 129.728 612.408 132.104 611.288 134.168C610.184 136.216 608.64 137.824 606.656 138.992C604.688 140.144 602.408 140.72 599.816 140.72ZM599.816 134.624C601.912 134.624 603.472 133.92 604.496 132.512C605.536 131.088 606.056 129.264 606.056 127.04C606.056 124.736 605.528 122.896 604.472 121.52C603.432 120.144 601.88 119.456 599.816 119.456C598.392 119.456 597.224 119.776 596.312 120.416C595.4 121.056 594.72 121.944 594.272 123.08C593.84 124.216 593.624 125.536 593.624 127.04C593.624 129.36 594.144 131.208 595.184 132.584C596.24 133.944 597.784 134.624 599.816 134.624ZM630.63 140.72C627.942 140.72 625.638 140.12 623.718 138.92C621.798 137.72 620.326 136.088 619.302 134.024C618.278 131.96 617.766 129.632 617.766 127.04C617.766 124.416 618.294 122.072 619.35 120.008C620.422 117.944 621.926 116.32 623.862 115.136C625.798 113.952 628.086 113.36 630.726 113.36C633.782 113.36 636.342 114.136 638.406 115.688C640.486 117.224 641.814 119.328 642.39 122L635.862 123.728C635.478 122.384 634.806 121.336 633.846 120.584C632.902 119.832 631.83 119.456 630.63 119.456C629.254 119.456 628.126 119.792 627.246 120.464C626.366 121.12 625.718 122.024 625.302 123.176C624.886 124.312 624.678 125.6 624.678 127.04C624.678 129.296 625.174 131.128 626.166 132.536C627.174 133.928 628.662 134.624 630.63 134.624C632.102 134.624 633.222 134.288 633.99 133.616C634.758 132.944 635.334 131.984 635.718 130.736L642.39 132.128C641.654 134.88 640.262 137 638.214 138.488C636.166 139.976 633.638 140.72 630.63 140.72ZM648.102 140L648.15 105.44H654.774V126.56L663.558 114.08H671.622L662.262 127.04L672.246 140H663.75L654.774 127.52V140H648.102ZM16.416 206.72C13.856 206.72 11.544 206.272 9.48 205.376C7.432 204.464 5.744 203.168 4.416 201.488C3.104 199.792 2.272 197.776 1.92 195.44L8.736 194.432C9.216 196.416 10.208 197.944 11.712 199.016C13.216 200.088 14.928 200.624 16.848 200.624C17.92 200.624 18.96 200.456 19.968 200.12C20.976 199.784 21.8 199.288 22.44 198.632C23.096 197.976 23.424 197.168 23.424 196.208C23.424 195.856 23.368 195.52 23.256 195.2C23.16 194.864 22.992 194.552 22.752 194.264C22.512 193.976 22.168 193.704 21.72 193.448C21.288 193.192 20.736 192.96 20.064 192.752L11.088 190.112C10.416 189.92 9.632 189.648 8.736 189.296C7.856 188.944 7 188.44 6.168 187.784C5.336 187.128 4.64 186.264 4.08 185.192C3.536 184.104 3.264 182.736 3.264 181.088C3.264 178.768 3.848 176.84 5.016 175.304C6.184 173.768 7.744 172.624 9.696 171.872C11.648 171.12 13.808 170.752 16.176 170.768C18.56 170.8 20.688 171.208 22.56 171.992C24.432 172.776 26 173.92 27.264 175.424C28.528 176.912 29.44 178.736 30 180.896L22.944 182.096C22.688 180.976 22.216 180.032 21.528 179.264C20.84 178.496 20.016 177.912 19.056 177.512C18.112 177.112 17.12 176.896 16.08 176.864C15.056 176.832 14.088 176.976 13.176 177.296C12.28 177.6 11.544 178.048 10.968 178.64C10.408 179.232 10.128 179.936 10.128 180.752C10.128 181.504 10.36 182.12 10.824 182.6C11.288 183.064 11.872 183.44 12.576 183.728C13.28 184.016 14 184.256 14.736 184.448L20.736 186.08C21.632 186.32 22.624 186.64 23.712 187.04C24.8 187.424 25.84 187.968 26.832 188.672C27.84 189.36 28.664 190.272 29.304 191.408C29.96 192.544 30.288 193.984 30.288 195.728C30.288 197.584 29.896 199.208 29.112 200.6C28.344 201.976 27.304 203.12 25.992 204.032C24.68 204.928 23.192 205.6 21.528 206.048C19.88 206.496 18.176 206.72 16.416 206.72ZM48.5711 206.72C45.9151 206.72 43.5711 206.152 41.5391 205.016C39.5231 203.864 37.9391 202.288 36.7871 200.288C35.6511 198.272 35.0831 195.968 35.0831 193.376C35.0831 190.544 35.6431 188.08 36.7631 185.984C37.8831 183.888 39.4271 182.264 41.3951 181.112C43.3631 179.944 45.6271 179.36 48.1871 179.36C50.9071 179.36 53.2191 180 55.1231 181.28C57.0271 182.56 58.4351 184.36 59.3471 186.68C60.2591 189 60.5791 191.728 60.3071 194.864H53.8511V192.464C53.8511 189.824 53.4271 187.928 52.5791 186.776C51.7471 185.608 50.3791 185.024 48.4751 185.024C46.2511 185.024 44.6111 185.704 43.5551 187.064C42.5151 188.408 41.9951 190.4 41.9951 193.04C41.9951 195.456 42.5151 197.328 43.5551 198.656C44.6111 199.968 46.1551 200.624 48.1871 200.624C49.4671 200.624 50.5631 200.344 51.4751 199.784C52.3871 199.224 53.0831 198.416 53.5631 197.36L60.0911 199.232C59.1151 201.6 57.5711 203.44 55.4591 204.752C53.3631 206.064 51.0671 206.72 48.5711 206.72ZM39.9791 194.864V190.016H57.1631V194.864H39.9791ZM73.4175 206.72C71.5615 206.72 69.9855 206.368 68.6895 205.664C67.4095 204.944 66.4335 203.992 65.7615 202.808C65.1055 201.608 64.7775 200.288 64.7775 198.848C64.7775 197.648 64.9615 196.552 65.3295 195.56C65.6975 194.568 66.2895 193.696 67.1055 192.944C67.9375 192.176 69.0495 191.536 70.4415 191.024C71.4015 190.672 72.5455 190.36 73.8735 190.088C75.2015 189.816 76.7055 189.56 78.3855 189.32C80.0655 189.064 81.9135 188.784 83.9295 188.48L81.5775 189.776C81.5775 188.24 81.2095 187.112 80.4735 186.392C79.7375 185.672 78.5055 185.312 76.7775 185.312C75.8175 185.312 74.8175 185.544 73.7775 186.008C72.7375 186.472 72.0095 187.296 71.5935 188.48L65.6895 186.608C66.3455 184.464 67.5775 182.72 69.3855 181.376C71.1935 180.032 73.6575 179.36 76.7775 179.36C79.0655 179.36 81.0975 179.712 82.8735 180.416C84.6495 181.12 85.9935 182.336 86.9055 184.064C87.4175 185.024 87.7215 185.984 87.8175 186.944C87.9135 187.904 87.9615 188.976 87.9615 190.16V206H82.2495V200.672L83.0655 201.776C81.8015 203.52 80.4335 204.784 78.9615 205.568C77.5055 206.336 75.6575 206.72 73.4175 206.72ZM74.8095 201.584C76.0095 201.584 77.0175 201.376 77.8335 200.96C78.6655 200.528 79.3215 200.04 79.8015 199.496C80.2975 198.952 80.6335 198.496 80.8095 198.128C81.1455 197.424 81.3375 196.608 81.3855 195.68C81.4495 194.736 81.4815 193.952 81.4815 193.328L83.4015 193.808C81.4655 194.128 79.8975 194.4 78.6975 194.624C77.4975 194.832 76.5295 195.024 75.7935 195.2C75.0575 195.376 74.4095 195.568 73.8495 195.776C73.2095 196.032 72.6895 196.312 72.2895 196.616C71.9055 196.904 71.6175 197.224 71.4255 197.576C71.2495 197.928 71.1615 198.32 71.1615 198.752C71.1615 199.344 71.3055 199.856 71.5935 200.288C71.8975 200.704 72.3215 201.024 72.8655 201.248C73.4095 201.472 74.0575 201.584 74.8095 201.584ZM95.1619 206V180.08H100.922V186.416L100.298 185.6C100.634 184.704 101.082 183.888 101.642 183.152C102.202 182.416 102.89 181.808 103.706 181.328C104.33 180.944 105.01 180.648 105.746 180.44C106.482 180.216 107.242 180.08 108.026 180.032C108.81 179.968 109.594 179.984 110.378 180.08V186.176C109.658 185.952 108.818 185.88 107.858 185.96C106.914 186.024 106.058 186.24 105.29 186.608C104.522 186.96 103.874 187.432 103.346 188.024C102.818 188.6 102.418 189.288 102.146 190.088C101.874 190.872 101.738 191.76 101.738 192.752V206H95.1619ZM126.858 206.72C124.17 206.72 121.866 206.12 119.946 204.92C118.026 203.72 116.554 202.088 115.53 200.024C114.506 197.96 113.994 195.632 113.994 193.04C113.994 190.416 114.522 188.072 115.578 186.008C116.65 183.944 118.154 182.32 120.09 181.136C122.026 179.952 124.314 179.36 126.954 179.36C130.01 179.36 132.57 180.136 134.634 181.688C136.714 183.224 138.042 185.328 138.618 188L132.09 189.728C131.706 188.384 131.034 187.336 130.074 186.584C129.13 185.832 128.058 185.456 126.858 185.456C125.482 185.456 124.354 185.792 123.474 186.464C122.594 187.12 121.946 188.024 121.53 189.176C121.114 190.312 120.906 191.6 120.906 193.04C120.906 195.296 121.402 197.128 122.394 198.536C123.402 199.928 124.89 200.624 126.858 200.624C128.33 200.624 129.45 200.288 130.218 199.616C130.986 198.944 131.562 197.984 131.946 196.736L138.618 198.128C137.882 200.88 136.49 203 134.442 204.488C132.394 205.976 129.866 206.72 126.858 206.72ZM162.043 206V193.76C162.043 193.168 162.011 192.416 161.947 191.504C161.883 190.576 161.683 189.648 161.347 188.72C161.011 187.792 160.459 187.016 159.691 186.392C158.939 185.768 157.867 185.456 156.475 185.456C155.915 185.456 155.315 185.544 154.675 185.72C154.035 185.896 153.435 186.24 152.875 186.752C152.315 187.248 151.851 187.984 151.483 188.96C151.131 189.936 150.955 191.232 150.955 192.848L147.211 191.072C147.211 189.024 147.627 187.104 148.459 185.312C149.291 183.52 150.539 182.072 152.203 180.968C153.883 179.864 155.995 179.312 158.539 179.312C160.571 179.312 162.227 179.656 163.507 180.344C164.787 181.032 165.779 181.904 166.483 182.96C167.203 184.016 167.715 185.12 168.019 186.272C168.323 187.408 168.507 188.448 168.571 189.392C168.635 190.336 168.667 191.024 168.667 191.456V206H162.043ZM144.331 206V171.44H150.139V189.2H150.955V206H144.331ZM186.424 206V171.44H192.952V185.648H208.408V171.44H214.936V206H208.408V191.744H192.952V206H186.424ZM234.682 206.72C232.026 206.72 229.682 206.152 227.65 205.016C225.634 203.864 224.05 202.288 222.898 200.288C221.762 198.272 221.194 195.968 221.194 193.376C221.194 190.544 221.754 188.08 222.874 185.984C223.994 183.888 225.538 182.264 227.506 181.112C229.474 179.944 231.738 179.36 234.298 179.36C237.018 179.36 239.33 180 241.234 181.28C243.138 182.56 244.546 184.36 245.458 186.68C246.37 189 246.69 191.728 246.418 194.864H239.962V192.464C239.962 189.824 239.538 187.928 238.69 186.776C237.858 185.608 236.49 185.024 234.586 185.024C232.362 185.024 230.722 185.704 229.666 187.064C228.626 188.408 228.106 190.4 228.106 193.04C228.106 195.456 228.626 197.328 229.666 198.656C230.722 199.968 232.266 200.624 234.298 200.624C235.578 200.624 236.674 200.344 237.586 199.784C238.498 199.224 239.194 198.416 239.674 197.36L246.202 199.232C245.226 201.6 243.682 203.44 241.57 204.752C239.474 206.064 237.178 206.72 234.682 206.72ZM226.09 194.864V190.016H243.274V194.864H226.09ZM252.797 206V180.08H258.557V186.416L257.933 185.6C258.269 184.704 258.717 183.888 259.277 183.152C259.837 182.416 260.525 181.808 261.341 181.328C261.965 180.944 262.645 180.648 263.381 180.44C264.117 180.216 264.877 180.08 265.661 180.032C266.445 179.968 267.229 179.984 268.013 180.08V186.176C267.293 185.952 266.453 185.88 265.493 185.96C264.549 186.024 263.693 186.24 262.925 186.608C262.157 186.96 261.509 187.432 260.981 188.024C260.453 188.6 260.053 189.288 259.781 190.088C259.509 190.872 259.373 191.76 259.373 192.752V206H252.797ZM285.117 206.72C282.461 206.72 280.117 206.152 278.085 205.016C276.069 203.864 274.485 202.288 273.333 200.288C272.197 198.272 271.629 195.968 271.629 193.376C271.629 190.544 272.189 188.08 273.309 185.984C274.429 183.888 275.973 182.264 277.941 181.112C279.909 179.944 282.173 179.36 284.733 179.36C287.453 179.36 289.765 180 291.669 181.28C293.573 182.56 294.981 184.36 295.893 186.68C296.805 189 297.125 191.728 296.853 194.864H290.397V192.464C290.397 189.824 289.973 187.928 289.125 186.776C288.293 185.608 286.925 185.024 285.021 185.024C282.797 185.024 281.157 185.704 280.101 187.064C279.061 188.408 278.541 190.4 278.541 193.04C278.541 195.456 279.061 197.328 280.101 198.656C281.157 199.968 282.701 200.624 284.733 200.624C286.013 200.624 287.109 200.344 288.021 199.784C288.933 199.224 289.629 198.416 290.109 197.36L296.637 199.232C295.661 201.6 294.117 203.44 292.005 204.752C289.909 206.064 287.613 206.72 285.117 206.72ZM276.525 194.864V190.016H293.709V194.864H276.525Z" fill="#0C1116"/>
<circle cx="32" cy="32" r="32" fill="#1589CC"/>
<path d="M49.8982 15.5178L49.0862 21.7587C47.1012 21.6245 45.5674 21.9824 44.4847 22.8324C43.402 23.6824 42.6802 24.868 42.3193 26.389C41.9584 27.9101 41.8907 29.6325 42.1163 31.5562H49.8982V47.7288H34.9434V30.2141C34.9434 24.9351 36.2066 20.9534 38.7329 18.2692C41.3043 15.5402 45.026 14.6231 49.8982 15.5178ZM29.0563 15.5178L28.2443 21.7587C26.2593 21.6245 24.7255 21.9824 23.6428 22.8324C22.5601 23.6824 21.8383 24.868 21.4774 26.389C21.1165 27.9101 21.0489 29.6325 21.2744 31.5562H29.0563V47.7288H14.1016V30.2141C14.1016 24.9351 15.3647 20.9534 17.891 18.2692C20.4624 15.5402 24.1842 14.6231 29.0563 15.5178Z" fill="white"/>
</svg>
